<svg width="574" height="574" xmlns="http://www.w3.org/2000/svg" xmlns:xlink="http://www.w3.org/1999/xlink"><defs><filter x="-26.4%" y="-26.4%" width="152.8%" height="152.8%" filterUnits="objectBoundingBox" id="a"><feMorphology radius="1" operator="dilate" in="SourceAlpha" result="shadowSpreadOuter1"/><feOffset in="shadowSpreadOuter1" result="shadowOffsetOuter1"/><feGaussianBlur stdDeviation="37" in="shadowOffsetOuter1" result="shadowBlurOuter1"/><feComposite in="shadowBlurOuter1" in2="SourceAlpha" operator="out" result="shadowBlurOuter1"/><feColorMatrix values="0 0 0 0 0 0 0 0 0 0 0 0 0 0 0 0 0 0 1 0" in="shadowBlurOuter1"/></filter><filter x="-7.8%" y="-6.6%" width="115.5%" height="115.5%" filterUnits="objectBoundingBox" id="d"><feMorphology radius="1.5" operator="dilate" in="SourceAlpha" result="shadowSpreadOuter1"/><feOffset dy="4" in="shadowSpreadOuter1" result="shadowOffsetOuter1"/><feGaussianBlur stdDeviation="8" in="shadowOffsetOuter1" result="shadowBlurOuter1"/><feComposite in="shadowBlurOuter1" in2="SourceAlpha" operator="out" result="shadowBlurOuter1"/><feColorMatrix values="0 0 0 0 0 0 0 0 0 0 0 0 0 0 0 0 0 0 0.5 0" in="shadowBlurOuter1"/></filter><filter x="-6.9%" y="-5.8%" width="113.8%" height="113.8%" filterUnits="objectBoundingBox" id="g"><feGaussianBlur stdDeviation="5" in="SourceAlpha" result="shadowBlurInner1"/><feOffset dy="4" in="shadowBlurInner1" result="shadowOffsetInner1"/><feComposite in="shadowOffsetInner1" in2="SourceAlpha" operator="arithmetic" k2="-1" k3="1" result="shadowInnerInner1"/><feColorMatrix values="0 0 0 0 1 0 0 0 0 1 0 0 0 0 1 0 0 0 0.119451349 0" in="shadowInnerInner1" result="shadowMatrixInner1"/><feGaussianBlur stdDeviation="4.5" in="SourceAlpha" result="shadowBlurInner2"/><feOffset dy="-4" in="shadowBlurInner2" result="shadowOffsetInner2"/><feComposite in="shadowOffsetInner2" in2="SourceAlpha" operator="arithmetic" k2="-1" k3="1" result="shadowInnerInner2"/><feColorMatrix values="0 0 0 0 0 0 0 0 0 0 0 0 0 0 0 0 0 0 0.5 0" in="shadowInnerInner2" result="shadowMatrixInner2"/><feMerge><feMergeNode in="shadowMatrixInner1"/><feMergeNode in="shadowMatrixInner2"/></feMerge></filter><filter x="-7.1%" y="-7.1%" width="114.2%" height="114.2%" filterUnits="objectBoundingBox" id="h"><feOffset dy="1" in="SourceAlpha" result="shadowOffsetOuter1"/><feGaussianBlur stdDeviation="1.5" in="shadowOffsetOuter1" result="shadowBlurOuter1"/><feColorMatrix values="0 0 0 0 1 0 0 0 0 1 0 0 0 0 1 0 0 0 0.08 0" in="shadowBlurOuter1" result="shadowMatrixOuter1"/><feMerge><feMergeNode in="shadowMatrixOuter1"/><feMergeNode in="SourceGraphic"/></feMerge></filter><radialGradient cx="0%" cy="0%" fx="0%" fy="0%" r="161.012%" id="c"><stop offset="0%"/><stop stop-color="#1F1F1F" offset="100%"/></radialGradient><radialGradient cx="0%" cy="0%" fx="0%" fy="0%" r="93.908%" id="f"><stop stop-color="#2D2D2D" offset="0%"/><stop stop-color="#131313" offset="100%"/></radialGradient><path d="M212 0c40.274 0 77.255 10.13 108.662 28.113 31.407 17.983 57.242 43.818 75.225 75.225C413.869 134.745 424 171.726 424 212s-10.13 77.255-28.113 108.662c-17.983 31.407-43.818 57.242-75.225 75.225C289.255 413.869 252.274 424 212 424s-77.255-10.13-108.662-28.113c-31.407-17.983-57.242-43.818-75.225-75.225C10.131 289.255 0 252.274 0 212s10.13-77.255 28.113-108.662c17.983-31.407 43.818-57.242 75.225-75.225C134.745 10.131 171.726 0 212 0z" id="b"/><path d="M212 35c97.754 0 177 79.246 177 177s-79.246 177-177 177S35 309.754 35 212 114.246 35 212 35z" id="e"/></defs><g fill="none" fill-rule="evenodd"><g transform="translate(75 75)"><use fill="#000" filter="url(#a)" xlink:href="#b"/><use stroke="#000" stroke-width="2" fill-opacity=".71" fill="url(#c)" xlink:href="#b"/></g><g transform="translate(75 75)"><use fill="#000" filter="url(#d)" xlink:href="#e"/><use fill="url(#f)" xlink:href="#e"/><use fill="#000" filter="url(#g)" xlink:href="#e"/><use stroke="#000" stroke-width="3" xlink:href="#e"/></g><g transform="translate(231 238)" fill="#040404" filter="url(#h)"><path d="M100.936 14.925v32.201H82.888L113 74.242 91.127 98.075 56.499 66.894 21.873 98.075 0 74.242l30.112-27.116H12.024V14.925h88.912z"/></g></g></svg>