<svg width="276" height="90" xmlns="http://www.w3.org/2000/svg" xmlns:xlink="http://www.w3.org/1999/xlink"><defs><filter x="-.1%" y="-.3%" width="100.2%" height="101.1%" filterUnits="objectBoundingBox" id="a"><feOffset dy=".5" in="SourceAlpha" result="shadowOffsetOuter1"/><feColorMatrix values="0 0 0 0 1 0 0 0 0 1 0 0 0 0 1 0 0 0 0.0709680944 0" in="shadowOffsetOuter1"/></filter><path d="M11.923 64.442L9.018 78.191a6.64 6.64 0 00-.135 1.216c0 1.452 1.047 2.094 2.904 2.094 1.926 0 3.344-.71 3.885-3.209l2.938-13.85h8.68L24.15 79.17C22.662 86.095 18.71 89 11.18 89 4.256 89 0 86.467 0 81.366c0-1.014.169-2.33.405-3.48l2.837-13.444h8.68zm157.526 0l-2.904 13.749a6.64 6.64 0 00-.135 1.216c0 1.452 1.047 2.094 2.904 2.094 1.925 0 3.344-.71 3.884-3.209l2.939-13.85h8.68l-3.141 14.728c-1.486 6.925-5.438 9.83-12.97 9.83-6.924 0-11.18-2.533-11.18-7.634 0-1.014.17-2.33.406-3.48l2.837-13.444h8.68zm-129.155 0L36.78 80.927h11.01l-2.228 7.161H26.615l5.032-23.646h8.647zm32.018 0l-.675 7.094h-7.498l-3.513 16.552h-8.68l3.513-16.552h-7.836l2.161-7.094h22.528zm15.672 0c7.295 0 10.132 3.31 10.132 7.972 0 4.527-1.992 7.634-6.147 8.986l4.188 6.688h-9.22l-3.175-5.607h-2.736l-1.182 5.607h-8.68l5.032-23.646zm34.788 0l1.757 23.646h-8.816l-.304-4.29h-7.396l-2.095 4.29h-9.085l11.787-23.646h14.152zm17.867 0l-1.756 8.175h7.093l1.756-8.175h8.68l-5.032 23.646h-8.68l1.79-8.445h-7.093l-1.79 8.445h-8.68l5.032-23.646h8.68zm58.06 0l2.972 9.087 6.552-9.087h10.234l-4.999 23.646h-8.309l2.601-12.33-8.275 10.742h-.337l-4.087-10.81-2.6 12.398h-8.31l5.033-23.646h9.524zm43.4 0l1.757 23.646h-8.816l-.304-4.29h-7.396l-2.094 4.29h-9.086l11.788-23.646h14.151zm17.867 0l5.1 11.925h.068l2.533-11.925h8.14l-5.033 23.646h-8.51l-5.236-12.127h-.068l-2.567 12.127h-8.14l5.033-23.646h8.68zm-144.86 6.891h-1.318l-3.175 6.689h4.762l-.27-6.689zm119.326 0h-1.317l-3.175 6.689h4.763l-.27-6.689zm-147.529-.405h-3.445l-1.114 5.303h4.12c2.094 0 3.141-1.35 3.141-3.04 0-1.452-.777-2.263-2.702-2.263zM159.312 0v15.446h-8.575l14.307 13.007-10.393 11.432L138.2 24.928l-16.452 14.957-10.392-11.432 14.305-13.007h-8.592V0h42.243z" id="b"/></defs><g fill-rule="evenodd"><use filter="url(#a)" xlink:href="#b"/><use xlink:href="#b"/></g></svg>